HIERARCHY
ROOT Hips
{
  OFFSET 263.056 91.6644 -274.608
  CHANNELS 6 Xposition Yposition Zposition Zrotation Xrotation Yrotation
  JOINT LeftUpLeg
  {
    OFFSET 8.64259 1.95398 -2.38835
    CHANNELS 3 Zrotation Xrotation Yrotation
    JOINT LeftLeg
    {
      OFFSET 43.7702 0 0
      CHANNELS 3 Zrotation Xrotation Yrotation
      JOINT LeftFoot
      {
        OFFSET 40.6238 0 0
        CHANNELS 3 Zrotation Xrotation Yrotation
        JOINT LeftToeBase
        {
          OFFSET 12.7242 0 0
          CHANNELS 3 Zrotation Xrotation Yrotation
          End Site
          {
            OFFSET 0 0 0
          }
        }
      }
    }
  }
  JOINT RightUpLeg
  {
    OFFSET -8.2249 1.95398 -2.59336
    CHANNELS 3 Zrotation Xrotation Yrotation
    JOINT RightLeg
    {
      OFFSET 43.5653 0 0
      CHANNELS 3 Zrotation Xrotation Yrotation
      JOINT RightFoot
      {
        OFFSET 40.6238 0 0
        CHANNELS 3 Zrotation Xrotation Yrotation
        JOINT RightToeBase
        {
          OFFSET 12.7242 0 0
          CHANNELS 3 Zrotation Xrotation Yrotation
          End Site
          {
            OFFSET 0 0 0
          }
        }
      }
    }
  }
  JOINT Spine
  {
    OFFSET 0.165834 0.87714 6.61349
    CHANNELS 3 Zrotation Xrotation Yrotation
    JOINT Spine1
    {
      OFFSET 7.38963 1.71661e-005 0
      CHANNELS 3 Zrotation Xrotation Yrotation
      JOINT Spine2
      {
        OFFSET 11.9445 1.14441e-005 0
        CHANNELS 3 Zrotation Xrotation Yrotation
        JOINT Spine3
        {
          OFFSET 14.7254 4.19617e-005 0
          CHANNELS 3 Zrotation Xrotation Yrotation
          JOINT Spine4
          {
            OFFSET 10.9679 0 0
            CHANNELS 3 Zrotation Xrotation Yrotation
            JOINT RightShoulder
            {
              OFFSET 2.46616 -1.6653 3.69651
              CHANNELS 3 Zrotation Xrotation Yrotation
              JOINT RightArm
              {
                OFFSET 13.0012 0 0
                CHANNELS 3 Zrotation Xrotation Yrotation
                JOINT RightForeArm
                {
                  OFFSET 28.7848 1.52588e-005 0
                  CHANNELS 3 Zrotation Xrotation Yrotation
                  JOINT RightHand
                  {
                    OFFSET 26.5688 1.52588e-005 0
                    CHANNELS 3 Zrotation Xrotation Yrotation
                    End Site
                    {
                      OFFSET 0 0 0
                    }
                  }
                }
              }
            }
            JOINT LeftShoulder
            {
              OFFSET 2.38034 -1.29275 -3.7523
              CHANNELS 3 Zrotation Xrotation Yrotation
              JOINT LeftArm
              {
                OFFSET 16.3182 6.10352e-005 0
                CHANNELS 3 Zrotation Xrotation Yrotation
                JOINT LeftForeArm
                {
                  OFFSET 27.0901 0 0
                  CHANNELS 3 Zrotation Xrotation Yrotation
                  JOINT LeftHand
                  {
                    OFFSET 24.5451 1.52588e-005 0
                    CHANNELS 3 Zrotation Xrotation Yrotation
                    End Site
                    {
                      OFFSET 0 0 0
                    }
                  }
                }
              }
            }
            JOINT Neck
            {
              OFFSET 5.0226 -0.0266342 0
              CHANNELS 3 Zrotation Xrotation Yrotation
              JOINT Head
              {
                OFFSET 6.69364 2.86102e-005 0
                CHANNELS 3 Zrotation Xrotation Yrotation
                End Site
                {
                  OFFSET 0 0 0
                }
              }
            }
          }
        }
      }
    }
  }
}
MOTION
Frames:	18
Frame Time:	0.0416667
-34.3244 9.97244 11.2083 3.94857 -1.85051 77.6158 -175.67 7.16199 89.789 -21.4361 32.4185 0.00542893 52.6718 -4.50454 3.65671 98.2472 65.7128 -7.30507 179.58 8.83881 87.7861 -29.0006 -11.1284 -5.70093 55.5308 2.26707 1.75843 60.8237 9.66261 33.1468 0.386499 6.74075 -90.5709 13.3937 0.490817 -1.20554 1.72225 0.437262 -1.22599 -20.8103 0.83042 -1.00234 -0.797684 0.830418 -1.00234 93.9306 -41.6794 -96.2394 -45.9219 38.6414 61.9592 -21.2234 4.76783 -144.616 -50.0124 -4.81023 8.87179 -99.6095 -39.5294 60.3533 56.2579 -26.7706 82.8737 13.1488 15.4543 -154.605 59.1853 11.0188 14.1741 34.2472 -23.1393 14.9863 -0.535184 -28.245 -14.3552 
-34.3443 10.0029 11.2065 3.89866 -1.78261 77.5989 -175.392 7.23358 89.9122 -21.2818 32.7673 -0.250883 52.7582 -4.36978 4.09968 102.329 65.7473 -11.7321 179.659 8.98158 87.8299 -29.1722 -11.2147 -5.77167 55.8673 2.16695 1.67341 60.8727 9.67542 33.123 0.345473 6.78109 -90.5966 13.3124 0.397519 -1.24436 1.64091 0.342362 -1.26064 -20.891 0.753093 -1.06739 -0.878355 0.753104 -1.06737 94.0273 -41.064 -96.1925 -46.0051 39.856 62.1417 -20.0757 3.68982 -144.742 -49.2387 -4.35821 7.91523 -99.3744 -40.1252 60.9951 54.9143 -26.8715 82.0639 13.1527 15.0824 -154.556 60.5825 11.4397 14.3563 31.9656 -23.9017 13.1939 3.09563 -28.3738 -13.5737 
-34.3374 10.015 11.2218 3.95301 -1.72505 77.4838 -175.818 7.21699 89.6154 -21.5116 32.4261 0.0686986 52.9273 -4.19581 4.00554 101.21 65.6109 -10.6915 179.556 8.8989 87.6697 -29.1126 -11.4097 -5.73486 55.9898 2.0956 1.61686 60.7089 9.64347 33.2451 0.374358 6.80932 -90.6181 13.2562 0.444739 -1.2929 1.58465 0.38742 -1.31122 -20.9471 0.812723 -1.09951 -0.934492 0.812723 -1.09951 94.6815 -40.8143 -95.1046 -47.7151 40.9955 62.8294 -18.0277 -0.714869 -145.517 -47.8025 -4.1684 7.59433 -100.032 -40.5559 60.1368 56.3992 -26.459 82.5126 12.4547 16.7876 -153.686 58.5018 10.4381 13.4389 31.562 -23.8905 13.2977 1.99782 -28.2997 -14.1812 
-34.3561 10.0494 11.2492 4.06409 -1.63942 77.4627 -175.865 7.14648 89.6145 -21.4703 32.5513 0.0950398 52.6941 -4.27682 4.32367 104.205 65.5477 -13.979 179.504 8.84484 87.6616 -29.1925 -11.2979 -5.72396 55.9762 2.12623 1.64111 60.9318 9.60632 32.7567 0.357841 6.85019 -90.6191 13.1742 0.411968 -1.28986 1.50262 0.354825 -1.30674 -21.029 0.780553 -1.10646 -1.01639 0.780575 -1.10644 94.634 -40.745 -95.2043 -47.9382 41.3407 63.3056 -17.6699 -1.27404 -145.852 -47.9314 -4.22182 7.69168 -99.9647 -40.3798 60.1626 56.184 -26.4798 82.4513 12.7087 16.7181 -153.279 59.5749 10.5969 13.3366 30.7632 -24.2323 12.9193 2.32358 -28.4533 -14.3635 
-34.3142 10.0168 11.2532 3.88387 -1.80098 77.5403 -175.73 7.17378 89.7133 -21.2756 32.458 0.0162651 52.7269 -4.2332 4.40687 105.497 65.6435 -15.2191 179.676 9.05874 87.813 -29.2148 -11.0368 -5.79865 55.6244 2.24041 1.73633 60.8439 9.83237 33.7976 0.193055 6.75609 -90.4824 13.3613 0.149913 -0.98475 1.69 0.106432 -0.990406 -20.8426 0.438938 -0.894185 -0.829988 0.438938 -0.894193 92.2303 -44.0904 -98.6069 -51.2164 40.2874 64.1197 -17.4178 -2.00609 -145.693 -48.1175 -4.26148 7.71184 -97.0671 -39.9003 64.6241 52.6621 -26.1552 79.8203 13.2347 14.1656 -153.137 60.3143 10.6591 13.1907 29.3039 -24.2041 10.631 1.98488 -27.4647 -14.13 
-34.3254 10.0462 11.2372 4.03744 -1.59946 77.5696 -175.867 7.21582 89.7014 -21.5524 32.5462 0.142383 52.7427 -4.28454 4.19219 103.175 65.5356 -12.9015 179.566 8.82067 87.7758 -29.054 -11.1664 -5.70081 55.8091 2.1586 1.67035 60.7603 9.75366 33.6117 -0.0195607 6.67955 -90.3433 13.5138 -0.205124 -0.661471 1.84274 -0.234045 -0.651813 -20.6911 0.0031454 -0.692549 -0.678447 0.00314407 -0.692564 89.2284 -47.9876 -102.509 -56.5057 39.2782 65.8796 -16.8154 -4.05982 -145.616 -47.91 -4.13846 7.39504 -94.3665 -39.2966 68.8317 48.6063 -25.6237 77.0736 13.5981 11.2988 -153.546 58.3444 11.4299 15.1692 27.885 -23.931 8.89635 1.39894 -26.4954 -14.4802 
-34.3088 10.0261 11.243 3.95627 -1.78078 77.6691 -175.745 7.26787 89.819 -21.6035 32.5275 0.0819587 52.5607 -4.42896 4.36737 104.531 65.1225 -14.8491 179.652 8.87308 87.8777 -29.0172 -11.2775 -5.72623 55.6106 2.21768 1.7189 60.8812 9.76414 33.4668 -0.137467 6.55998 -90.2069 13.7532 -0.373137 -0.365036 2.08221 -0.388822 -0.34826 -20.4527 -0.246169 -0.460288 -0.440098 -0.246185 -0.460293 86.1183 -51.0947 -106.412 -59.6752 37.5663 66.8111 -16.4139 -4.74827 -145.474 -48.0414 -4.08931 7.21258 -92.4227 -37.9501 71.6355 46.0873 -24.5067 75.6515 13.9432 9.75813 -153.159 59.4484 11.2657 14.4828 24.8603 -23.9967 6.61159 2.54004 -25.7955 -14.2593 
-34.2982 10.0316 11.2385 3.98498 -1.74319 77.6669 -175.755 7.22702 89.8112 -21.5334 32.5583 0.0848671 52.5328 -4.418 4.42491 105.097 65.0277 -15.5592 179.664 8.8796 87.8942 -29.0953 -11.2786 -5.75516 55.6956 2.20449 1.70734 60.4668 9.57853 33.3577 -0.266767 6.48519 -90.1084 13.9033 -0.581752 -0.139461 2.23251 -0.587322 -0.113723 -20.3034 -0.512936 -0.307842 -0.290798 -0.512929 -0.307845 83.1472 -53.2725 -110.099 -61.0198 35.9884 66.5586 -17.0625 -2.84353 -144.907 -48.7516 -4.09306 7.12523 -90.9962 -37.343 73.8866 44.0463 -23.7854 74.3344 14.0199 8.53617 -153.12 59.5132 11.3674 14.6255 23.837 -23.8022 5.74992 2.10786 -25.2823 -14.4164 
-34.3256 10.0367 11.2398 3.87755 -1.6503 77.6116 -175.802 7.40522 89.7565 -21.6362 32.4565 0.0955591 52.8442 -4.22614 4.18733 104.281 65.6744 -13.903 179.67 8.93792 87.8307 -29.0063 -11.1852 -5.7371 55.7868 2.1462 1.66111 60.895 9.77183 33.4759 -0.376621 6.44289 -90.004 13.9886 -0.748324 0.0931669 2.31787 -0.743521 0.126004 -20.219 -0.741724 -0.13605 -0.206342 -0.741727 -0.136065 81.4813 -55.5766 -111.705 -61.0649 35.5053 64.8427 -16.371 -2.83638 -144.347 -49.473 -4.17504 7.08242 -89.5841 -36.6119 76.1262 42.1754 -23.3868 73.0142 13.8387 7.54833 -153.286 57.0736 11.3544 15.5376 23.0044 -23.8767 3.68384 2.74066 -24.7089 -13.3295 
-34.3029 10.0061 11.2471 3.87441 -1.63198 77.5406 -175.842 7.24195 89.6825 -21.3205 32.4654 0.0971032 52.5672 -4.37552 4.30076 104.696 65.1553 -14.9816 179.655 9.05861 87.7973 -29.2111 -11.1083 -5.79701 55.5731 2.27096 1.76098 61.2465 9.90664 33.4747 -0.454729 6.41774 -89.9302 14.0397 -0.866875 0.257911 2.36899 -0.854688 0.295836 -20.1685 -0.904315 -0.0145716 -0.155834 -0.90432 -0.0145647 79.4322 -57.0666 -114.031 -63.2608 35.374 65.2842 -16.2335 -3.5867 -144.327 -48.1804 -3.94967 6.78455 -88.6486 -36.2123 77.6624 41.2066 -23.1705 72.1844 14.1064 6.7698 -153.096 59.4559 11.4187 14.7309 22.7372 -23.7562 2.58225 2.60409 -24.2146 -12.7934 
-34.2584 9.97364 11.2383 3.79161 -1.6837 77.6124 -175.844 7.34295 89.7122 -21.517 32.4428 0.125136 52.7924 -4.17842 4.44402 103.522 64.9019 -14.0565 179.673 9.08168 87.8336 -29.0687 -11.0426 -5.7505 55.1939 2.37559 1.84998 61.4854 9.97991 33.4038 -0.509566 6.38739 -89.8928 14.1011 -0.957225 0.345818 2.4304 -0.94107 0.387607 -20.1076 -1.01691 0.0421162 -0.0949104 -1.01691 0.0421215 77.3861 -58.611 -116.242 -64.7332 35.0216 64.9912 -16.1103 -3.79353 -143.995 -48.6109 -3.93298 6.62995 -88.0322 -35.9399 78.6839 40.1016 -22.9106 71.4757 13.8197 6.61234 -153.017 58.9916 11.496 15.0322 21.7115 -23.5992 2.21181 2.77864 -23.9948 -13.1069 
-34.2572 9.97218 11.2422 3.8172 -1.72199 77.5528 -175.875 7.31773 89.6467 -21.6293 32.1636 0.156689 53.017 -3.97697 4.44902 104.133 64.6046 -15.0697 179.665 9.0165 87.7801 -29.0689 -11.1379 -5.77526 55.379 2.29927 1.78715 61.6326 9.89457 32.8491 -0.544091 6.3749 -89.8619 14.1265 -1.01044 0.415519 2.45584 -0.991171 0.4596 -20.0824 -1.0886 0.0926007 -0.0697662 -1.08861 0.0926017 75.7184 -59.48 -118.133 -65.9259 34.6532 65.1979 -15.992 -3.90019 -143.883 -49.1898 -4.08633 6.87814 -87.853 -35.712 78.9462 40.9015 -22.8848 72.0258 14.1879 6.34076 -153.174 58.521 11.5582 15.3171 21.1756 -23.1981 2.30073 2.91642 -23.6657 -13.2703 
-34.2327 9.96622 11.2411 3.81192 -1.75004 77.5762 -175.818 7.39451 89.6751 -21.8297 32.0947 0.117898 53.1683 -3.93891 4.17368 99.986 64.096 -11.2484 179.653 9.03509 87.8088 -29.0422 -10.8186 -5.72381 55.3185 2.30786 1.79703 61.3783 9.961 33.4897 -0.570457 6.37613 -89.8473 14.1243 -1.0555 0.451048 2.45366 -1.0346 0.497054 -20.0849 -1.14226 0.112952 -0.0722098 -1.14224 0.112924 73.9141 -60.071 -120.272 -68.4087 34.6169 66.3815 -16.0191 -5.02347 -143.957 -47.8599 -3.78505 6.42313 -87.7835 -35.7146 79.0708 41.2837 -22.6822 72.1189 14.2536 6.39342 -153.066 58.8792 11.4669 15.0286 20.3403 -22.976 2.04639 3.8139 -23.4606 -13.0296 
-34.2312 9.95683 11.1992 3.80571 -1.79665 77.6279 -175.71 7.36019 89.6776 -21.862 31.9754 0.0311992 53.3701 -3.77111 4.20048 98.5733 63.5597 -10.3686 179.662 9.01304 87.8293 -29.0377 -10.7808 -5.72617 55.2374 2.33598 1.82099 60.7587 9.80405 33.8165 -0.59081 6.42818 -89.8589 14.0202 -1.10186 0.432466 2.34967 -1.08176 0.480557 -20.1892 -1.18087 0.0812885 -0.17654 -1.1809 0.0812806 74.3758 -59.9295 -119.726 -66.7343 34.837 64.7187 -16.3312 -4.03418 -143.615 -48.8141 -3.90494 6.50736 -87.5349 -35.8381 79.5437 40.561 -22.9339 71.6355 14.3382 6.01089 -153.191 60.471 11.9615 15.2325 21.1044 -22.8563 2.29304 3.5287 -23.3654 -12.6966 
-34.242 9.95806 11.1825 3.81113 -1.77788 77.6549 -175.621 7.25673 89.6844 -21.6547 31.707 -0.0381651 53.9088 -3.45116 3.62291 91.2799 63.7389 -1.75405 179.624 9.04837 87.8494 -29.1689 -10.7349 -5.68331 55.6147 2.21288 1.71985 60.792 9.66295 33.1867 -0.603538 6.43724 -89.8741 14.0021 -1.13459 0.406137 2.33154 -1.11561 0.455662 -20.2075 -1.20419 0.0463207 -0.194911 -1.20419 0.0463138 73.8084 -59.1576 -120.789 -66.7549 34.0376 65.11 -16.5714 -4.12912 -143.684 -48.7068 -3.83599 6.36958 -87.7568 -35.7109 79.1175 39.0883 -22.5841 71.0345 14.8519 4.78343 -153.011 61.2261 12.39 15.5741 19.3619 -22.6222 2.70722 5.05795 -23.4767 -13.5481 
-34.2428 9.96169 11.1739 3.78677 -1.98816 77.6823 -175.526 7.07997 89.6821 -21.2928 31.3641 -0.107074 54.1849 -3.2866 3.21773 88.032 64.5377 3.17545 179.7 9.17204 87.9001 -29.3869 -10.8794 -5.79942 55.2988 2.35541 1.83527 60.9783 9.71909 33.1349 -0.592222 6.5025 -89.8961 13.8713 -1.1233 0.358489 2.20078 -1.10645 0.407548 -20.3383 -1.17911 0.00425761 -0.325625 -1.17909 0.00426205 75.4542 -58.2809 -118.961 -62.5376 33.2187 61.7552 -16.5395 -2.67284 -142.718 -50.5918 -4.33695 7.05117 -87.7039 -35.7728 79.2272 37.9016 -22.6134 70.1168 15.6286 3.25691 -153.16 63.5151 13.5574 16.5573 19.9963 -22.3296 3.38638 5.04716 -23.4225 -13.9981 
-34.2888 9.99655 11.1157 3.8743 -1.92858 77.7258 -175.576 6.89618 89.6462 -21.0298 31.373 -0.0877854 54.344 -3.06487 3.247 87.2033 65.5845 5.47862 179.684 9.25344 87.9456 -29.7173 -10.792 -5.80015 55.7298 2.24518 1.74038 60.8343 9.54225 32.6454 -0.640717 6.59202 -89.9583 13.6921 -1.25008 0.247771 2.02175 -1.23796 0.302544 -20.5182 -1.26674 -0.139458 -0.505557 -1.26674 -0.13945 77.2451 -56.5471 -117.225 -57.4848 31.6773 57.8536 -16.642 -1.20312 -141.389 -51.9239 -4.57977 7.17467 -87.7202 -36.7626 79.4362 37.6362 -23.0355 68.9427 15.3909 3.62026 -152.479 62.4701 13.2355 16.4698 21.0115 -21.6596 5.00947 4.40062 -23.3004 -15.4649 
-34.2687 10.0583 11.1233 4.03902 -2.06797 77.6797 -175.524 6.71721 89.5852 -20.988 31.2456 -0.132367 54.0275 -3.27707 3.38069 86.9665 64.8062 4.81872 179.624 9.24448 87.8618 -29.8679 -10.8043 -5.81211 55.1028 2.48702 1.94051 61.1509 9.77535 33.096 -0.620286 6.6901 -89.96 13.4957 -1.2111 0.235908 1.8253 -1.19953 0.288982 -20.7144 -1.22599 -0.139015 -0.701701 -1.22599 -0.139045 79.6276 -54.4001 -114.732 -51.7268 30.3415 54.3228 -16.2734 -0.274309 -140.613 -53.0614 -4.66044 6.9345 -87.1713 -36.7648 80.404 35.4456 -23.1849 65.523 16.6457 0.614064 -151.96 62.2801 14.3534 18.2745 18.5319 -21.9212 3.11069 8.50838 -23.3096 -13.9232 
